<svg version="1.1" xmlns="http://www.w3.org/2000/svg" xmlns:xlink="http://www.w3.org/1999/xlink" width="48px" height="48px" viewBox="0,0,256,256"><g transform=""><g fill="#ffc250" fill-rule="nonzero" stroke="none" stroke-width="1" stroke-linecap="butt" stroke-linejoin="miter" stroke-miterlimit="10" stroke-dasharray="" stroke-dashoffset="0" font-family="none" font-weight="none" font-size="none" text-anchor="none" style="mix-blend-mode: normal"><path d="M0,256v-256h256v256z"></path></g><g fill="none" fill-rule="nonzero" stroke="none" stroke-width="none" stroke-linecap="butt" stroke-linejoin="none" stroke-miterlimit="10" stroke-dasharray="" stroke-dashoffset="0" font-family="none" font-weight="none" font-size="none" text-anchor="none" style="mix-blend-mode: normal"><path d="M234.66667,114.66667c0,47.76299 -31.3928,88.1938 -74.67068,101.7847c-0.07254,4.05951 -1.12801,7.62756 -3.16641,10.70413c-2.99128,4.84068 -7.86125,8.41226 -13.57237,9.6772c-2.04889,6.47448 -8.10502,11.1673 -15.25721,11.1673c-7.15219,0 -13.20832,-4.69282 -15.25721,-11.1673c-9.40475,-2.08303 -16.5285,-10.42113 -16.73805,-20.3811c-43.27826,-13.59068 -74.67141,-54.02167 -74.67141,-101.78493c0,-58.91037 47.75629,-106.66667 106.66667,-106.66667c58.91037,0 106.66667,47.75629 106.66667,106.66667z" fill="#5c7cfa" stroke="#5c7cfa" stroke-width="10" stroke-linejoin="round"></path><g transform="translate(0,-2.66667) scale(5.33333,5.33333)" stroke="none" stroke-width="1" stroke-linejoin="miter"><path d="M24,2c-11.04569,0 -20,8.95431 -20,20c0,11.04569 8.95431,20 20,20c11.04569,0 20,-8.95431 20,-20c0,-11.04569 -8.95431,-20 -20,-20z" fill="#fcc419"></path><path d="M37,22c0,-7.7 -6.6,-13.8 -14.5,-12.9c-6,0.7 -10.8,5.5 -11.4,11.5c-0.5,4.6 1.4,8.7 4.6,11.3c1.4,1.2 2.3,2.9 2.3,4.8v0.3h12v-0.1c0,-1.8 0.8,-3.6 2.2,-4.8c2.9,-2.4 4.8,-6 4.8,-10.1z" fill="#fcc419"></path><path d="M30.6,20.2l-3,-2c-0.3,-0.2 -0.8,-0.2 -1.1,0l-2.5,1.6l-2.4,-1.6c-0.3,-0.2 -0.8,-0.2 -1.1,0l-3,2c-0.2,0.2 -0.4,0.4 -0.4,0.7c0,0.3 0,0.6 0.2,0.8l3.8,4.7v10.6h2v-11c0,-0.2 -0.1,-0.4 -0.2,-0.6l-3.3,-4.1l1.5,-1l2.4,1.6c0.3,0.2 0.8,0.2 1.1,0l2.4,-1.6l1.5,1l-3.3,4.1c-0.1,0.2 -0.2,0.4 -0.2,0.6v11h2v-10.6l3.8,-4.7c0.2,-0.2 0.3,-0.5 0.2,-0.8c-0.1,-0.3 -0.2,-0.6 -0.4,-0.7z" fill="#fcc419"></path><path d="M24,41c-1.65685,0 -3,1.34315 -3,3c0,1.65685 1.34315,3 3,3c1.65685,0 3,-1.34315 3,-3c0,-1.65685 -1.34315,-3 -3,-3z" fill="#5c7cfa"></path><path d="M26,45h-4c-2.2,0 -4,-1.8 -4,-4v-5h12v5c0,2.2 -1.8,4 -4,4z" fill="#fcc419"></path><path d="M30,41l-11.6,1.6c0.3,0.7 0.9,1.4 1.6,1.8l9.4,-1.3c0.4,-0.6 0.6,-1.3 0.6,-2.1zM18,38.7v2l12,-1.7v-2z" fill="#5c7cfa"></path></g></g><g fill="#5c7cfa" fill-rule="nonzero" stroke="none" stroke-width="none" stroke-linecap="butt" stroke-linejoin="none" stroke-miterlimit="10" stroke-dasharray="" stroke-dashoffset="0" font-family="none" font-weight="none" font-size="none" text-anchor="none" style="mix-blend-mode: normal"><path d="M57,37h24.22l46.49,116.02l46.48,-116.02h24.32v142.19h-18.75v-55.37l1.76,-59.77l-46.68,115.14h-14.36l-46.58,-114.84l1.85,59.47v55.37h-18.75z" id="strokeMainSVG" stroke="#5c7cfa" stroke-width="10" stroke-linejoin="round"></path><g stroke="none" stroke-width="1" stroke-linejoin="miter"><path d="M57,37h24.22l46.49,116.02l46.48,-116.02h24.32v142.19h-18.75v-55.37l1.76,-59.77l-46.68,115.14h-14.36l-46.58,-114.84l1.85,59.47v55.37h-18.75z"></path></g></g></g></svg>